<svg width="32" height="32" viewBox="0 0 32 32" fill="none" xmlns="http://www.w3.org/2000/svg">
<g clip-path="url(#clip0_441_51615)">
<path d="M4.4 0C1.7916 0 0 1.7896 0 4.4C0 4.9978 0 30.4008 0 31C0 31.5992 0.4 32 1 32C1.6 32 24.9834 32 27.6 32C30.2166 32 32 29.7648 32 27.6C32 25.5482 32 1.6138 32 1C32 0.3862 31.575 0 31 0C30.425 0 6.9334 0 4.4 0Z" fill="#066A0A"/>
<path d="M5.96766 9.43359C2.91766 16.7002 11.0845 22.2836 14.6677 21.567C14.5575 20.9658 14.5231 20.1358 14.5373 19.5164C14.5399 19.3996 10.6495 16.935 9.95026 14.9676C12.7927 18.1688 14.5657 18.9092 14.5759 18.7816C14.7355 16.7966 15.3845 14.9334 15.3845 14.9334C15.3845 14.9334 12.8345 10.9834 5.96766 9.43359Z" fill="white"/>
<path d="M15.3852 21.8169C13.1352 10.7667 24.3186 8.38327 26.7018 10.4503C25.8018 15.3001 23.9208 16.9847 23.0852 18.2169C21.9102 19.9497 18.6894 21.9749 16.1018 22.4003C16.1018 22.4003 18.2518 16.6997 21.8018 14.2337C18.6352 14.8831 15.6518 21.9001 15.3852 21.8169Z" fill="white"/>
</g>
<defs>
<clipPath id="clip0_441_51615">
<rect width="32" height="32" fill="white"/>
</clipPath>
</defs>
</svg>
